<svg width="160" height="160" viewBox="0 0 160 160" fill="none" xmlns="http://www.w3.org/2000/svg">
  <defs>
    <filter id="stackShadow" x="0" y="0" width="160" height="160" color-interpolation-filters="sRGB">
      <feDropShadow dx="0" dy="0" stdDeviation="2" flood-color="#EA580C" flood-opacity="0.8"/>
      <feDropShadow dx="0" dy="3" stdDeviation="2" flood-color="#2B1200" flood-opacity="0.5"/>
    </filter>
  </defs>
  <g
    filter="url(#stackShadow)"
    stroke="#EA580C"
    stroke-width="5"
    stroke-linecap="round"
    stroke-linejoin="round"
  >
    <path d="M68 18L80 26L92 18"/>
    <path d="M66 32L80 40L94 32"/>
    <path d="M64 46L80 54L96 46"/>

    <path d="M68 142L80 134L92 142"/>
    <path d="M66 128L80 120L94 128"/>
    <path d="M64 114L80 106L96 114"/>

    <path d="M18 68L26 80L18 92"/>
    <path d="M32 66L40 80L32 94"/>
    <path d="M46 64L54 80L46 96"/>

    <path d="M142 68L134 80L142 92"/>
    <path d="M128 66L120 80L128 94"/>
    <path d="M114 64L106 80L114 96"/>
  </g>
  <g
    stroke="#FFECA3"
    stroke-width="1.5"
    stroke-linecap="round"
    stroke-linejoin="round"
    opacity="0.9"
  >
    <path d="M68 18L80 26L92 18"/>
    <path d="M66 32L80 40L94 32"/>
    <path d="M64 46L80 54L96 46"/>

    <path d="M68 142L80 134L92 142"/>
    <path d="M66 128L80 120L94 128"/>
    <path d="M64 114L80 106L96 114"/>

    <path d="M18 68L26 80L18 92"/>
    <path d="M32 66L40 80L32 94"/>
    <path d="M46 64L54 80L46 96"/>

    <path d="M142 68L134 80L142 92"/>
    <path d="M128 66L120 80L128 94"/>
    <path d="M114 64L106 80L114 96"/>
  </g>
  <circle
    cx="80"
    cy="80"
    r="11"
    fill="#EA580C"
    stroke="#FFECA3"
    stroke-width="2"
    filter="url(#stackShadow)"
  />
</svg>
